<?xml version="1.0" encoding="UTF-8"?><svg id="Layer_2" xmlns="http://www.w3.org/2000/svg" xmlns:xlink="http://www.w3.org/1999/xlink" viewBox="0 0 133.17 143.37"><defs><style>.cls-1{fill:url(#New_Gradient_Swatch_1-15);}.cls-2{fill:url(#linear-gradient-12);}.cls-2,.cls-3,.cls-4,.cls-5,.cls-6,.cls-7,.cls-8,.cls-9,.cls-10,.cls-11,.cls-12,.cls-13,.cls-14,.cls-15,.cls-16,.cls-17,.cls-18,.cls-19,.cls-20,.cls-21,.cls-22,.cls-23,.cls-24,.cls-25,.cls-26,.cls-27,.cls-28,.cls-29,.cls-30,.cls-31,.cls-32,.cls-33,.cls-34,.cls-35,.cls-36,.cls-37,.cls-38,.cls-39,.cls-40,.cls-41,.cls-42,.cls-43,.cls-44,.cls-45,.cls-46,.cls-47,.cls-48,.cls-49,.cls-50,.cls-51,.cls-52,.cls-53,.cls-54,.cls-55,.cls-56,.cls-57,.cls-58,.cls-59,.cls-60,.cls-61,.cls-62,.cls-63,.cls-64{stroke-width:0px;}.cls-2,.cls-3,.cls-52,.cls-65{opacity:.5;}.cls-3{fill:url(#linear-gradient-17);}.cls-4{fill:url(#New_Gradient_Swatch_6);}.cls-5{fill:url(#New_Gradient_Swatch_1);}.cls-6{fill:url(#New_Gradient_Swatch_3);}.cls-7{fill:url(#New_Gradient_Swatch_1-7);}.cls-8{fill:url(#New_Gradient_Swatch_1-4);}.cls-9{fill:url(#New_Gradient_Swatch_1-6);}.cls-10{fill:url(#New_Gradient_Swatch_1-9);}.cls-11{fill:url(#New_Gradient_Swatch_1-3);}.cls-12{fill:url(#New_Gradient_Swatch_6-2);}.cls-13{fill:url(#New_Gradient_Swatch_6-3);}.cls-14{fill:url(#New_Gradient_Swatch_1-2);}.cls-15{fill:url(#New_Gradient_Swatch_1-8);}.cls-16{fill:url(#New_Gradient_Swatch_1-5);}.cls-17{fill:url(#New_Gradient_Swatch_3-3);}.cls-18{fill:url(#New_Gradient_Swatch_3-4);}.cls-19{fill:url(#New_Gradient_Swatch_3-2);}.cls-20{fill:url(#linear-gradient);}.cls-21{fill:url(#linear-gradient-33);}.cls-22{fill:url(#linear-gradient-29);}.cls-23{fill:url(#linear-gradient-32);}.cls-24{fill:url(#linear-gradient-30);}.cls-25{fill:url(#linear-gradient-31);}.cls-26{fill:url(#linear-gradient-36);}.cls-27{fill:url(#linear-gradient-37);}.cls-28{fill:url(#linear-gradient-35);}.cls-29{fill:url(#linear-gradient-28);}.cls-30{fill:url(#linear-gradient-25);}.cls-31{fill:url(#linear-gradient-11);}.cls-32{fill:url(#linear-gradient-13);}.cls-33{fill:url(#linear-gradient-10);}.cls-34{fill:url(#linear-gradient-16);}.cls-35{fill:url(#linear-gradient-19);}.cls-36{fill:url(#linear-gradient-23);}.cls-37{fill:url(#linear-gradient-21);}.cls-38{fill:url(#linear-gradient-18);}.cls-39{fill:url(#linear-gradient-22);}.cls-40{fill:url(#linear-gradient-20);}.cls-41{fill:url(#linear-gradient-27);}.cls-42{fill:url(#linear-gradient-24);}.cls-43{fill:url(#linear-gradient-26);}.cls-44{fill:url(#New_Gradient_Swatch_1-12);}.cls-45{fill:url(#New_Gradient_Swatch_1-11);}.cls-46{fill:url(#New_Gradient_Swatch_1-10);}.cls-47{fill:url(#New_Gradient_Swatch_1-13);}.cls-48{fill:url(#New_Gradient_Swatch_1-14);}.cls-49{fill:url(#linear-gradient-14);}.cls-49,.cls-50,.cls-51{opacity:.2;}.cls-50{fill:url(#linear-gradient-15);}.cls-51{fill:url(#linear-gradient-34);}.cls-52,.cls-61{fill:#101037;}.cls-53{fill:url(#linear-gradient-4);}.cls-54{fill:url(#linear-gradient-2);}.cls-55{fill:url(#linear-gradient-3);}.cls-56{fill:url(#linear-gradient-8);}.cls-57{fill:url(#linear-gradient-9);}.cls-58{fill:url(#linear-gradient-7);}.cls-59{fill:url(#linear-gradient-5);}.cls-60{fill:url(#linear-gradient-6);}.cls-62{fill:#9958ff;}.cls-63{fill:#fff;}.cls-64{fill:#0052e2;}</style><linearGradient id="New_Gradient_Swatch_1" x1="-1186.26" y1="128.35" x2="-1189.64" y2="131.57" gradientTransform="translate(-1164.36) rotate(-180) scale(1 -1)" gradientUnits="userSpaceOnUse"><stop offset="0" stop-color="#838caf"/><stop offset="1" stop-color="#fff"/></linearGradient><linearGradient id="New_Gradient_Swatch_1-2" x1="-1178.78" y1="136.02" x2="-1179.44" y2="139.4" xlink:href="#New_Gradient_Swatch_1"/><linearGradient id="New_Gradient_Swatch_1-3" x1="-1173.55" y1="136.19" x2="-1174.05" y2="139.74" xlink:href="#New_Gradient_Swatch_1"/><linearGradient id="New_Gradient_Swatch_1-4" x1="-1168.76" y1="132.99" x2="-1168.35" y2="137.04" xlink:href="#New_Gradient_Swatch_1"/><linearGradient id="linear-gradient" x1="-743.27" y1="1532.46" x2="-743.27" y2="1541.52" gradientTransform="translate(-1558.5 -511.09) rotate(137.87) scale(1 -1)" gradientUnits="userSpaceOnUse"><stop offset="0" stop-color="#838caf"/><stop offset=".99" stop-color="#e1e5f1"/></linearGradient><linearGradient id="linear-gradient-2" x1="-1011.16" y1="837.52" x2="-1011.16" y2="843.09" gradientTransform="translate(-1148.32 -475.07) rotate(168.06) scale(1 -1)" xlink:href="#linear-gradient"/><linearGradient id="linear-gradient-3" x1="-996.54" y1="859.65" x2="-994.09" y2="863.89" gradientTransform="translate(-1152.62 -482.35) rotate(167.21) scale(1 -1)" xlink:href="#linear-gradient"/><linearGradient id="linear-gradient-4" x1="-970.26" y1="669.78" x2="-970.26" y2="677.16" gradientTransform="translate(-1020.29 -452.88) rotate(175.06) scale(1 -1)" xlink:href="#linear-gradient"/><linearGradient id="New_Gradient_Swatch_1-5" x1="-1189.71" y1="124.34" x2="-1164.83" y2="124.34" xlink:href="#New_Gradient_Swatch_1"/><linearGradient id="linear-gradient-5" x1="-1189.96" y1="124.45" x2="-1164.57" y2="124.45" gradientTransform="translate(-1164.36) rotate(-180) scale(1 -1)" xlink:href="#linear-gradient"/><linearGradient id="New_Gradient_Swatch_1-6" x1="-1189.73" y1="113.33" x2="-1165.6" y2="113.33" gradientTransform="translate(-10.69 -1069.53) rotate(-96.66) scale(1 -1)" xlink:href="#New_Gradient_Swatch_1"/><linearGradient id="linear-gradient-6" x1="-1189.98" y1="113.33" x2="-1165.34" y2="113.33" gradientTransform="translate(-1164.36) rotate(-180) scale(1 -1)" xlink:href="#linear-gradient"/><linearGradient id="New_Gradient_Swatch_3" x1="-1189.31" y1="95.11" x2="-1176.26" y2="92.8" gradientTransform="translate(-1164.36) rotate(-180) scale(1 -1)" gradientUnits="userSpaceOnUse"><stop offset="0" stop-color="#101037"/><stop offset="1" stop-color="#838caf"/></linearGradient><linearGradient id="linear-gradient-7" x1="-1198.22" y1="27.06" x2="-1202.94" y2="41.74" gradientTransform="translate(-1164.36) rotate(-180) scale(1 -1)" gradientUnits="userSpaceOnUse"><stop offset="0" stop-color="#101037"/><stop offset="1" stop-color="#101037" stop-opacity="0"/></linearGradient><linearGradient id="linear-gradient-8" x1="-1232.63" y1="75.82" x2="-1212.31" y2="62.11" gradientTransform="translate(-1164.36) rotate(-180) scale(1 -1)" gradientUnits="userSpaceOnUse"><stop offset="0" stop-color="#101037" stop-opacity=".5"/><stop offset="1" stop-color="#101037" stop-opacity="0"/></linearGradient><linearGradient id="New_Gradient_Swatch_3-2" x1="-1231.94" y1="22.22" x2="-1206.44" y2="76.21" xlink:href="#New_Gradient_Swatch_3"/><linearGradient id="linear-gradient-9" x1="-1175.21" y1="53.21" x2="-1192.88" y2="56.84" gradientTransform="translate(-1164.36) rotate(-180) scale(1 -1)" gradientUnits="userSpaceOnUse"><stop offset="0" stop-color="#fff" stop-opacity=".7"/><stop offset=".69" stop-color="#fff" stop-opacity="0"/></linearGradient><linearGradient id="linear-gradient-10" x1="-1204.48" y1="82.31" x2="-1204.14" y2="73.91" gradientTransform="translate(-1164.36) rotate(-180) scale(1 -1)" gradientUnits="userSpaceOnUse"><stop offset="0" stop-color="#101037" stop-opacity=".2"/><stop offset="1" stop-color="#101037" stop-opacity="0"/></linearGradient><linearGradient id="linear-gradient-11" x1="-1160.61" y1="219.69" x2="-1153.66" y2="257.31" gradientTransform="translate(-1167.44 96.72) rotate(166.56) scale(1 -1)" gradientUnits="userSpaceOnUse"><stop offset="0" stop-color="#101037" stop-opacity=".5"/><stop offset=".55" stop-color="#101037" stop-opacity="0"/><stop offset="1" stop-color="#101037" stop-opacity=".5"/></linearGradient><linearGradient id="linear-gradient-12" x1="-1177.18" y1="151.75" x2="-1172.81" y2="170.87" gradientTransform="translate(-1169.44 38.03) rotate(172.52) scale(1 -1)" gradientUnits="userSpaceOnUse"><stop offset="0" stop-color="#fff"/><stop offset="1" stop-color="#e1e5f1" stop-opacity=".3"/></linearGradient><linearGradient id="linear-gradient-13" x1="-1232.8" y1="89.31" x2="-1227.09" y2="45.88" gradientTransform="translate(-1161.55 -60.49) rotate(-177.84) scale(1 -1)" gradientUnits="userSpaceOnUse"><stop offset="0" stop-color="#fff" stop-opacity=".04"/><stop offset=".56" stop-color="#fff" stop-opacity=".5"/><stop offset="1" stop-color="#fff" stop-opacity="0"/></linearGradient><linearGradient id="linear-gradient-14" x1="-1221.14" y1="43.48" x2="-1221.62" y2="52.58" gradientTransform="translate(-1156.03 -85.91) rotate(-175.15) scale(1 -1)" xlink:href="#linear-gradient-12"/><linearGradient id="linear-gradient-15" x1="-1222.27" y1="-32.9" x2="-1210.38" y2="-25.72" gradientTransform="translate(-1155.46 -67.6) rotate(-173.34) scale(1 -1)" xlink:href="#linear-gradient-12"/><linearGradient id="New_Gradient_Swatch_6" x1="-1237.17" y1="57.61" x2="-1173.7" y2="57.61" gradientTransform="translate(-1164.36) rotate(-180) scale(1 -1)" gradientUnits="userSpaceOnUse"><stop offset="0" stop-color="#101037"/><stop offset=".99" stop-color="#e1e5f1"/></linearGradient><linearGradient id="linear-gradient-16" x1="-1174.27" y1="48.95" x2="-1278.86" y2="54.46" gradientTransform="translate(-1164.36) rotate(-180) scale(1 -1)" gradientUnits="userSpaceOnUse"><stop offset="0" stop-color="#fff"/><stop offset="1" stop-color="#838caf"/></linearGradient><linearGradient id="linear-gradient-17" x1="-1173.08" y1="33.17" x2="-1197.85" y2="40.66" gradientTransform="translate(-1164.36) rotate(-180) scale(1 -1)" gradientUnits="userSpaceOnUse"><stop offset="0" stop-color="#fff" stop-opacity="0"/><stop offset="1" stop-color="#101037" stop-opacity=".5"/></linearGradient><linearGradient id="linear-gradient-18" x1="-1218.17" y1="47.13" x2="-1278.45" y2="78.51" xlink:href="#linear-gradient-17"/><linearGradient id="linear-gradient-19" x1="-1259.97" y1="83.02" x2="-1262.34" y2="97.66" gradientTransform="translate(-1164.36) rotate(-180) scale(1 -1)" gradientUnits="userSpaceOnUse"><stop offset="0" stop-color="#101037"/><stop offset="1" stop-color="#101037" stop-opacity="0"/></linearGradient><linearGradient id="New_Gradient_Swatch_3-3" x1="-1294.53" y1="48.66" x2="-1261.31" y2="48.66" xlink:href="#New_Gradient_Swatch_3"/><linearGradient id="linear-gradient-20" x1="-1293.29" y1="48.49" x2="-1264.75" y2="48.49" xlink:href="#linear-gradient-19"/><linearGradient id="New_Gradient_Swatch_1-7" x1="-1294.56" y1="48.33" x2="-1267.28" y2="48.33" xlink:href="#New_Gradient_Swatch_1"/><linearGradient id="linear-gradient-21" x1="-1289.03" y1="48.67" x2="-1261.06" y2="48.67" gradientTransform="translate(-1164.36) rotate(-180) scale(1 -1)" gradientUnits="userSpaceOnUse"><stop offset=".39" stop-color="#101037"/><stop offset=".99" stop-color="#e1e5f1"/></linearGradient><linearGradient id="New_Gradient_Swatch_6-2" x1="-1286.61" y1="70.8" x2="-1172.52" y2="70.8" xlink:href="#New_Gradient_Swatch_6"/><linearGradient id="New_Gradient_Swatch_1-8" x1="-1297.29" y1="48.8" x2="-1276.18" y2="48.8" gradientTransform="translate(48.07 -1236.71) rotate(-95.48) scale(1 -1)" xlink:href="#New_Gradient_Swatch_1"/><linearGradient id="linear-gradient-22" x1="-1291.28" y1="48.33" x2="-1267.03" y2="48.33" gradientTransform="translate(-1164.36) rotate(-180) scale(1 -1)" gradientUnits="userSpaceOnUse"><stop offset="0" stop-color="#101037"/><stop offset="1" stop-color="#e1e5f1"/></linearGradient><linearGradient id="linear-gradient-23" x1="-1270.29" y1="18.46" x2="-1239.23" y2="18.46" gradientTransform="translate(-1164.36) rotate(-180) scale(1 -1)" gradientUnits="userSpaceOnUse"><stop offset="0" stop-color="#303053" stop-opacity=".5"/><stop offset="1" stop-color="#b2b7ce"/></linearGradient><linearGradient id="linear-gradient-24" x1="-1238.5" y1="94.82" x2="-1237.77" y2="94.82" xlink:href="#linear-gradient-23"/><linearGradient id="linear-gradient-25" x1="-1273" y1="86.48" x2="-1250.07" y2="86.48" gradientTransform="translate(-1164.36) rotate(-180) scale(1 -1)" gradientUnits="userSpaceOnUse"><stop offset="0" stop-color="#4a4f78"/><stop offset=".22" stop-color="#6f7495"/><stop offset=".59" stop-color="#a7acc1"/><stop offset=".85" stop-color="#c9cedc"/><stop offset="1" stop-color="#d7dce7"/></linearGradient><linearGradient id="linear-gradient-26" x1="-1270.45" y1="93.36" x2="-1252.34" y2="82.9" xlink:href="#linear-gradient-22"/><linearGradient id="New_Gradient_Swatch_1-9" x1="-1231.03" y1="123.22" x2="-1222.56" y2="123.22" xlink:href="#New_Gradient_Swatch_1"/><linearGradient id="New_Gradient_Swatch_1-10" x1="-1230.04" y1="134.46" x2="-1224.44" y2="134.46" xlink:href="#New_Gradient_Swatch_1"/><linearGradient id="New_Gradient_Swatch_1-11" x1="-1234.19" y1="138.56" x2="-1227.87" y2="138.56" xlink:href="#New_Gradient_Swatch_1"/><linearGradient id="New_Gradient_Swatch_1-12" x1="-1239.25" y1="141.3" x2="-1233.38" y2="141.3" xlink:href="#New_Gradient_Swatch_1"/><linearGradient id="linear-gradient-27" x1="-256.3" y1="-81.28" x2="-256.3" y2="-72.23" gradientTransform="translate(-20.13 377.68) rotate(91.31)" xlink:href="#linear-gradient"/><linearGradient id="linear-gradient-28" x1="221.23" y1="-312.49" x2="221.23" y2="-306.92" gradientTransform="translate(-315.51 90.81) rotate(61.12)" xlink:href="#linear-gradient"/><linearGradient id="linear-gradient-29" x1="218.58" y1="-308.6" x2="221.03" y2="-304.36" gradientTransform="translate(-307.18 89.3) rotate(61.98)" xlink:href="#linear-gradient"/><linearGradient id="linear-gradient-30" x1="393.13" y1="-321.43" x2="393.13" y2="-314.05" gradientTransform="translate(-415.99 8.41) rotate(54.12)" xlink:href="#linear-gradient"/><linearGradient id="New_Gradient_Swatch_1-13" x1="-1255.39" y1="126.01" x2="-1227.25" y2="126.01" xlink:href="#New_Gradient_Swatch_1"/><linearGradient id="linear-gradient-31" x1="-1255.58" y1="126.04" x2="-1227" y2="126.04" gradientTransform="translate(-1164.36) rotate(-180) scale(1 -1)" xlink:href="#linear-gradient"/><linearGradient id="New_Gradient_Swatch_1-14" x1="-1255.96" y1="120.07" x2="-1236.93" y2="120.07" gradientTransform="translate(-671.9 -879.71) rotate(-132.52) scale(1 -1)" xlink:href="#New_Gradient_Swatch_1"/><linearGradient id="linear-gradient-32" x1="-1256.21" y1="120.07" x2="-1236.68" y2="120.07" gradientTransform="translate(-1164.36) rotate(-180) scale(1 -1)" xlink:href="#linear-gradient"/><linearGradient id="linear-gradient-33" x1="-1272.97" y1="90.18" x2="-1250.67" y2="90.18" gradientTransform="translate(-1108.84 -290.84) rotate(-166.56) scale(1 -1)" gradientUnits="userSpaceOnUse"><stop offset="0" stop-color="#5b6185"/><stop offset="1" stop-color="#ced3e0"/></linearGradient><linearGradient id="linear-gradient-34" x1="-1263.03" y1="94.58" x2="-1260.8" y2="85.45" xlink:href="#linear-gradient-19"/><linearGradient id="linear-gradient-35" x1="-1268.22" y1="96.58" x2="-1255.41" y2="83.77" xlink:href="#linear-gradient-22"/><linearGradient id="New_Gradient_Swatch_3-4" x1="-1249.62" y1="101.76" x2="-1260.98" y2="106.34" xlink:href="#New_Gradient_Swatch_3"/><linearGradient id="New_Gradient_Swatch_1-15" x1="90.34" y1="79.67" x2="86.58" y2="79.03" gradientTransform="translate(31.84 -25.99) rotate(-2.87)" xlink:href="#New_Gradient_Swatch_1"/><linearGradient id="linear-gradient-36" x1="-1292.2" y1="56" x2="-1279.94" y2="56" gradientTransform="translate(-1163.91 8.57) rotate(179.3) scale(1 -1)" gradientUnits="userSpaceOnUse"><stop offset="0" stop-color="#e1e5f1"/><stop offset="1" stop-color="#101037"/></linearGradient><linearGradient id="linear-gradient-37" x1="-1297.53" y1="48.8" x2="-1275.93" y2="48.8" xlink:href="#linear-gradient-22"/><linearGradient id="New_Gradient_Swatch_6-3" x1="-1289.03" y1="44.76" x2="-1164.36" y2="44.76" xlink:href="#New_Gradient_Swatch_6"/></defs><g id="Layer_1-2"><path class="cls-5" d="m20.92,130.43c.87-3.12,1.43-4.55,1.43-4.55,0,0,6.59,5.07,4.44,7.34-1.71,1.81-5.87-2.79-5.87-2.79Z"/><path class="cls-14" d="m16.4,135.33s-2.33.72-4.12.57c0,0,.99,4.88,3.25,4.4,1.87-.39.87-4.97.87-4.97Z"/><path class="cls-11" d="m11.16,136.18s-2.58-.22-4.12-1.25c0,0,1.23,5.29,3.08,5.34,1.85.05,1.04-4.09,1.04-4.09Z"/><path class="cls-8" d="m5.69,134.2s-1.62-.99-2.66-2.51c0,0-.57,5.34,1.14,6.21,1.53.78,1.51-3.7,1.51-3.7Z"/><path class="cls-20" d="m25.79,133.89h-.02c-2.04-.02-4.9-3.16-5.03-3.3l-.09-.1.04-.13c.86-3.09,1.43-4.56,1.44-4.58l.12-.31.26.2c.19.15,4.76,3.7,4.96,6.27.04.57-.12,1.05-.49,1.45-.31.33-.71.5-1.19.5Zm-4.58-3.53c.5.53,2.93,3.02,4.57,3.03.34,0,.62-.11.85-.34.27-.29.39-.64.36-1.06-.16-2.02-3.52-4.9-4.5-5.7-.2.57-.66,1.9-1.27,4.07Z"/><path class="cls-54" d="m15.22,140.58c-.34,0-.67-.1-.98-.31-1.53-1-2.19-4.19-2.21-4.33l-.07-.33.33.03c1.72.15,4-.55,4.03-.56l.26-.08.06.27c.03.13.7,3.27-.18,4.64-.22.34-.51.55-.88.63-.12.03-.24.04-.36.04Zm-2.62-4.42c.2.82.83,2.97,1.92,3.69.31.2.62.27.96.2.23-.05.42-.18.56-.41.64-.99.3-3.23.16-4-.62.17-2.21.57-3.61.52Z"/><path class="cls-55" d="m10.16,140.53s-.03,0-.04,0c-1.99-.06-3.19-4.97-3.32-5.53l-.14-.62.53.35c1.47.98,3.97,1.21,4,1.21l.19.02.04.19c.02.12.56,2.92-.33,3.97-.24.28-.54.42-.92.42Zm-2.73-5.08c.45,1.65,1.49,4.54,2.7,4.58.24,0,.42-.07.56-.24.57-.67.4-2.51.25-3.37-.56-.06-2.21-.3-3.52-.96Z"/><path class="cls-53" d="m4.52,138.25c-.13,0-.28-.03-.45-.12-1.81-.92-1.34-5.9-1.28-6.46l.07-.68.38.57c.99,1.46,2.56,2.43,2.58,2.44l.12.07v.14c0,.34-.01,3.31-1.01,3.92-.1.06-.24.12-.42.12Zm-1.29-5.88c-.11,1.72-.05,4.74,1.06,5.31.2.1.31.06.38.02.55-.34.76-2.18.77-3.36-.35-.23-1.36-.93-2.21-1.97Z"/><path class="cls-16" d="m1.24,111.92s-2.34,13.89,1.08,19.19c5.7,8.83,14.55,5.7,17.71,1.51s5.29-12.6,5.32-17.88"/><path class="cls-59" d="m11.53,137.01c-.12,0-.25,0-.38,0-2.49-.09-6.07-1.16-9.04-5.76-3.43-5.32-1.22-18.79-1.12-19.36l.49.08c-.02.14-2.28,13.85,1.05,19.01,2.85,4.42,6.27,5.45,8.64,5.53,3.76.15,7.07-1.93,8.66-4.04,3.26-4.32,5.24-12.41,5.27-17.73h.5c-.03,5.41-2.04,13.63-5.37,18.04-1.62,2.14-4.91,4.24-8.7,4.24Z"/><ellipse class="cls-9" cx="13.3" cy="113.33" rx="4.79" ry="12.13" transform="translate(-100.81 113.4) rotate(-83.34)"/><path class="cls-60" d="m16.24,118.54c-1.12,0-2.3-.07-3.52-.21-6.9-.81-12.04-3.63-11.72-6.44.16-1.38,1.62-2.5,4.11-3.16,2.41-.64,5.53-.79,8.78-.4,6.9.81,12.04,3.63,11.72,6.44-.27,2.31-4.15,3.78-9.36,3.78Zm-5.85-9.93c-1.91,0-3.67.2-5.16.6-2.24.6-3.6,1.59-3.74,2.74-.29,2.44,4.88,5.14,11.28,5.89,6.4.75,12.05-.69,12.33-3.13h0c.29-2.44-4.88-5.14-11.28-5.89-1.17-.14-2.33-.2-3.43-.2Z"/><path class="cls-6" d="m27.67,75.17c-15.04,8.89-19.19,21.27-20.03,36.99-.02.41.18.81.52,1.03,1.46.93,5.62,3.05,10.49.96.36-.15.59-.5.6-.89.13-3.16,1.14-17.6,8.67-24.93,5.57-5.42,7.41-17.69-.26-13.15Z"/><path class="cls-61" d="m22.79,92.01c-2.02,0-5.04-.69-8.68-3.65l.32-.39c6.4,5.21,10.86,3.09,10.91,3.07l.22.45c-.09.04-1.08.52-2.76.52Z"/><path class="cls-61" d="m16.51,103.82c-2.16,0-4.86-.81-7.44-3.8l.38-.33c5.32,6.17,11.1,2.61,11.15,2.58l.27.42s-1.83,1.13-4.36,1.13Z"/><path class="cls-62" d="m74.5,40.14c3.18,8.26,3.16,17.62,3.77,26.42.41,5.97,2.61,15.08-.53,20.65-1.81,3.22-5.9,3.01-9.17,3.5-4.47.66-8.9,1.24-13.42,1.43-8.4.36-16.83-.15-25.2-.8-6.66-.52-13.65-1.47-17.99-7.07-.16-.2-.32-.38-.49-.54-3-12.99-4.37-34.93-1.49-45.67,0,0,1.96-3.9,6.36-8.15,3.8-.72,7.46-1.87,11.25-2.64,8.45-1.72,19.03-1.81,27.59-.5,3.8.58,7.1,2.23,10.38,4.17,4.22,2.5,7.2,4.68,8.94,9.19Z"/><path class="cls-58" d="m26.67,49.26c-2.04-2.94-2.97-6.58-3.2-10.14-.93.23-9.68,2.04-14.88,8.49.23-3.65.68-6.93,1.38-9.55,0,0,1.96-3.9,6.36-8.15,3.8-.72,7.46-1.87,11.25-2.64,8.45-1.72,19.03-1.81,27.59-.5,3.8.58,7.1,2.23,10.38,4.17.62.37,1.2.73,1.76,1.09-25.74-8.82-40.66,9.07-40.66,17.23Z"/><path class="cls-56" d="m39.11,66.2c6.22-5.87,9.29-15.37,7.74-23.75-1.11-6.02-4.18-10.6-8.31-14.36,6.1-.36,13.26-.82,19.66.51.5.55.85,1.63,1.74,1.89,4.3,1.23,6.31,5.91,7.5,9.89,1.31,4.39,2.28,11.01,2.43,16.32.27,9.8-.79,19.6-2.95,25.38-.57,1.2-1.23,3-3.07,3.6-6.87,2.25-14.64.26-23.68-.31-6.63-.42-11.56-.1-17.96-1.97-2.6-.76-5.69-2.19-7.94-3.58-1.83-1.54-3.98-2.14-4.29-4.25,10.59.69,21.18-1.85,29.14-9.37Z"/><path class="cls-19" d="m20.92,83.05c4.42,1.45,24.79,2.78,36.41,3.39,11.62.62,13.58-7.82,13.99-9.46.41-1.65,2.57-21.91,0-33.74-2.25-10.34-10.42-13.86-21.71-14.37,0-.02,0-.04,0-.06,12.53.26,22.44,3.02,24.87,14.21,2.75,12.66.44,34.35,0,36.11-.44,1.76-2.51,10.1-14.97,10.13-12.88.03-33.73-.98-38.24-3.07s-10.71-5.48-11.41-11.32l-.28-2.11c.66,5.46,6.38,8.67,11.34,10.29Z"/><path class="cls-57" d="m13.1,35.99c3.74-1.77,4.43-3.61,10.75-3.85.04,0-1.57,2.84-2.15,4.59-.45,1.64-.6,6.64-.39,6.29,3.44-5.83,8.35-8.43,10.13-9.96.37-.32.68-.7,1.01-1.05.89-.11,1.62-.43,2.18-.92.02,0,.05,0,.07-.01.39-.09.76-.22,1.13-.37-3.81,7.25-4.39,16.25-3.78,24.54-.17,5.01.15,10.06,1,14.98.26,1.48.61,2.92,1.01,4.33.38,3.45,1.02,6.86,1.62,10.29-3.83-.31-7.32-.94-8.84-.94-1.79,0-8.3-.99-13.33-4.85-5.14-23.41-.57-42.64-.43-43.06Z"/><path class="cls-33" d="m69.81,64.34c-.24,12.17-2.89,17.73-2.89,17.73,0,0-.01.85-7.69.85-10.06,0-30.82-1.6-39.78-3.48-7.48-1.57-9.13-4.11-9.13-4.11-.73-2.57-1.13-5.98-1.13-5.98,13.1,3.29,52.94,5.66,60.62-5.01Z"/><path class="cls-31" d="m18.23,81.7c-7.76-2.94-8.22-8.22-8.22-8.22-2.38-17.6-1.61-24.96.11-35.06,2.18-1.96,5.57-4.12,6.77-4.32-2.64,8.35-5.81,39.58,1.33,47.61Z"/><path class="cls-2" d="m19.44,33.16c-4.98,16.06-4.89,32.43-4.89,32.43-1.56-14.41,1.36-28.59,2.29-31.37.15-.45,2.83-1.82,2.59-1.07Z"/><path class="cls-63" d="m50.52,62.13c-1.43,0-2.5.55-3.22,1.37v-14.49c0-.92.75-1.67,1.67-1.67h3.26c.92,0,1.67.75,1.67,1.67v14.65h-.04c-.72-.91-1.83-1.53-3.34-1.53Z"/><path class="cls-63" d="m21.78,61.29c-1.42,0-2.49.55-3.22,1.36h0v-14.92c0-.78.63-1.41,1.41-1.41h3.8c.78,0,1.41.63,1.41,1.41v14.92h-.17c-.72-.82-1.79-1.36-3.21-1.36Z"/><path class="cls-63" d="m34.84,74.89c-1.17,0-2.44-.4-3.65-1.61-.2-.2-.2-.51,0-.71s.51-.2.71,0c2.93,2.93,6.33.09,6.48-.03.21-.18.53-.16.7.06.18.21.15.52-.05.7-.03.02-1.89,1.58-4.18,1.58Z"/><path class="cls-32" d="m58.2,30.48c.07,0,6.33.29,8.27,6.4,4.42,11.8,3.97,30.32,1.47,41.59,0,0-.86,4.73-2.82,6.55.23-2.3,8.54-44.8-6.92-54.54Z"/><path class="cls-49" d="m65.19,60.48c-.05.59,0,7.97-1.02,10.39-.41.96-1.14,1.76-2.97,1.93-.97.09-4.92.51-11.85-.16-.84-.08-.8-.69-.78-.84.16-.95.85-10.1,1.02-11.27.16-1.08,1.33-2.05,2.42-2.04,5.4.07,7.13-.11,10.93-.33,1.3-.08,2.36,1.02,2.24,2.31Z"/><path class="cls-50" d="m47.83,35.04c.04-1.61,1.13-1.7,2.15-1.76,1.64-.11,3.01-.18,4.17-.2,3.48-.07,6.67,1.99,8.04,5.18,1.29,3,2.68,7.41,2.98,12.8.14,2.48-1.76,4.7-4.24,4.91-2.27.2-4.72.29-8.63.27-2.52-.02-4.52-2.1-4.43-4.62.08-2.16-.06-16.15-.05-16.58Z"/><path class="cls-52" d="m60.37,30.74c.89-.08,4.37,2.2,7.25,4.53,7.65,8.86,4.34,35.15,3.53,42.48,0,0-.61,5.16-6.41,7.61,6.86-5.66,7.81-51.65-4.37-54.62Z"/><path class="cls-4" d="m58.02,86.67c-11.88,0-32.58-1.88-37.18-3.39-3.98-1.3-10.78-4.41-11.51-10.5l.5-.06c.7,5.82,7.3,8.82,11.17,10.08,4.23,1.39,24.61,3.38,37.32,3.36,10.73-.03,12.2-6.69,12.68-8.88.03-.15.06-.27.08-.37.42-1.67,2.55-21.89,0-33.63-2.22-10.2-10.39-14.59-26.53-14.22v-.5c21.04-.45,25.49,7.57,27.02,14.62,2.57,11.81.42,32.17,0,33.85-.02.1-.05.22-.08.36-.5,2.29-2.04,9.24-13.17,9.27h-.29Z"/><path class="cls-34" d="m9.86,74.87c.7,5.84,6.45,9.05,10.96,11.14,4.51,2.09,24.32,3.09,38.69,3.25,12.46.13,14.53-8.37,14.97-10.13s2.75-23.45,0-36.11-15.08-14.53-29.94-14.2-23.23,14.2-23.23,14.2c-1.43-5.94,2.97-10.9,2.97-10.9C10.53,32.34.29,49.41.29,49.41.29,49.41-2.9,3.89,44.99.97s66.88,3.46,77.39,19.59c0,0,.93,1.81,2.28,4.52s-3.94,38.43-2.98,45.12c.51,3.55.46,7.74-1.03,11.63-2.75,7.2-9.63,15.33-23.19,18.66s-29.8,3.47-45.99,2.57c-16.19-.9-31.05-3.05-35.64-8.84-5.11-6.43-5.97-19.35-5.97-19.35Z"/><path class="cls-3" d="m2.13,46.58c14.02-22.68,28.43-22.14,30.47-21.74-3.45,1.98-5.74,3.96-8.01,7.22.15-.19-.3.06-.3.06-10.31.16-18.64,9.79-22.17,14.6,0-.05,0-.1.02-.14Z"/><path class="cls-38" d="m20.55,85.63c3.24,1.5,14.87,2.63,26.14,3.25,3.39.52,7.48.5,10.85.28.68.04,1.35.07,1.99.1,7.1.38,10.82-2.4,12.8-5.18,3.09-2.82,3.24-16.65,3.5-26.19.21-7.72-.9-13.54-3.78-20.82-2.1-5.33.92-9.24,6.74-14.33,13.64-11.92,30.4-11.58,25.01-17.21-.14-.14,1.71.95,1.8.79,7.57,3.34,12.77,8.08,16.78,14.24,0,0,.93,1.81,2.28,4.52,1.34,2.7-3.94,38.43-2.98,45.12.51,3.55.46,7.74-1.03,11.63-2.75,7.2-9.63,15.33-23.19,18.66-13.17,3.24-29.8,3.47-45.99,2.57-16.19-.9-31.05-3.05-35.64-8.84-5.11-6.43-5.97-19.35-5.97-19.35.7,5.84,6.17,8.67,10.68,10.76Z"/><path class="cls-35" d="m108.76,95.75c-2.89,1.81-4.85,2.73-8.39,3.83-.51.05.03.07-.48.19-.66.16-1.33.4-1.99.69-3.83.87-7.8,1.37-11.65,2-.88-1.73-1.49-4.71-1.72-9.55-.27-5.65,3.43-11.35,10.6-13.06,7.17-1.71,12.87,1.96,14.07,7.48.55,2.56,1.24,5.42.6,7.77-.26.15-.77.46-1.05.64Z"/><path class="cls-17" d="m121.94,72.75c-1.4,3.3-3.93,6.39-7.38,6.39-9.73,0-17.61-12.37-17.61-29.39s7.94-30.73,17.64-31.49c5.97-.47,7.93,2.06,10.65,7.1,0,0,6.81,11.16,4.42,25.11s-7.72,22.28-7.72,22.28Z"/><path class="cls-40" d="m124.44,69.37c-1.2,2.82-4.77,7.12-9.07,6.85-8.29-.51-14.99-9.41-14.99-26.64,0-14.53,6.49-28.87,17.06-28.84,5.11.01,6.97,3.28,9.29,7.58,0,0,3.61,9.97,1.57,21.88-2.04,11.91-3.85,19.17-3.85,19.17Z"/><path class="cls-7" d="m123.55,71.58c-1.61,1.17-4.85,2.55-7.37,2.31-9.09-.87-14.39-12.83-13.05-26.71,1.33-13.88,7.17-25.29,17.08-24.38,2.07.19,5.04,1.4,6.52,3.05,0,0,2.96,4.37,3.44,13.5.48,9.14-6.62,32.23-6.62,32.23Z"/><path class="cls-37" d="m114.56,79.38c-10.18,0-17.86-12.74-17.86-29.64s7.85-30.95,17.87-31.74c5.6-.44,8.01,1.98,10.1,6.03l-.44.23c-1.99-3.86-4.29-6.17-9.61-5.76-9.76.77-17.41,14.49-17.41,31.24s7.63,29.14,17.36,29.14c4.06,0,6.35-4.36,7.15-6.23l.46.2c-.84,1.97-3.25,6.54-7.61,6.54Z"/><path class="cls-12" d="m67.61,103.59c-34.92,0-49.23-3.22-53.73-11.74-4.69-8.87-7.76-40.39-4.15-53.85l.48.13c-3.59,13.38-.54,44.68,4.11,53.49,4.7,8.89,20.58,11.88,60.71,11.43,19.48-.22,33.19-4.74,40.75-13.43,6.95-7.99,5.92-16.75,5.91-16.84l.5-.06c.01.09,1.08,9.06-6.02,17.22-7.65,8.81-21.49,13.39-41.13,13.61-2.57.03-5.05.04-7.43.04Z"/><ellipse class="cls-15" cx="122.37" cy="48.8" rx="23.83" ry="10.35" transform="translate(62.11 165.95) rotate(-84.52)"/><path class="cls-39" d="m116.8,74.17c-.22,0-.43,0-.64-.03-4.42-.42-8.2-3.49-10.64-8.62-2.36-4.98-3.3-11.5-2.64-18.36,1.51-15.78,8.33-25.43,17.35-24.61,2.07.19,5.13,1.41,6.69,3.13l-.37.33c-1.47-1.63-4.39-2.79-6.36-2.97-10.6-.97-15.68,12.41-16.81,24.16-.65,6.78.27,13.21,2.59,18.1,2.36,4.97,5.99,7.93,10.23,8.34,2.49.25,5.71-1.18,7.2-2.26l.29.4c-1.33.97-4.27,2.39-6.9,2.39Z"/><g class="cls-65"><path class="cls-36" d="m75.22,26.36l-.35-.35c14.93-14.93,30.89-15.43,31.05-15.43v.5c-.15,0-15.92.51-30.7,15.28Z"/></g><g class="cls-65"><path class="cls-42" d="m73.64,100.36c-.51-3.46-.02-10.77,0-11.08l.5.03c0,.08-.51,7.58,0,10.98l-.49.07Z"/></g><path class="cls-30" d="m108.6,88.55c.62-6.89-7.52-10.11-13.6-8.66-6.08,1.45-11.54,6.59-8.36,13.52"/><path class="cls-43" d="m86.41,93.52c-1.22-2.67-1.27-5.31-.13-7.64,1.43-2.94,4.67-5.27,8.66-6.22,3.96-.94,8.48.04,11.26,2.44,1.96,1.7,2.88,3.94,2.65,6.48l-.5-.04c.21-2.37-.64-4.47-2.48-6.06-2.62-2.27-7.07-3.23-10.82-2.33-3.85.92-6.96,3.15-8.33,5.96-1.08,2.23-1.04,4.65.14,7.22l-.46.21Z"/><path class="cls-10" d="m64.16,125.48c1.79-2.69,2.51-4.06,2.51-4.06,0,0-8.15-1.67-8.46,1.44-.25,2.48,5.95,2.62,5.95,2.62Z"/><path class="cls-46" d="m63.41,132.11s.98,2.24,2.27,3.49c0,0-4.34,2.45-5.46.42-.92-1.67,3.19-3.9,3.19-3.9Z"/><path class="cls-45" d="m66.19,136.63s1.85,1.81,3.64,2.3c0,0-4.8,2.53-6.06,1.16-1.25-1.37,2.42-3.46,2.42-3.46Z"/><path class="cls-44" d="m71.26,139.47s1.81.58,3.64.37c0,0-3.67,3.92-5.45,3.2-1.59-.65,1.81-3.57,1.81-3.57Z"/><path class="cls-41" d="m64.29,125.73h-.14c-.18,0-4.43-.12-5.78-1.65-.32-.37-.46-.79-.42-1.25.05-.54.31-.98.77-1.32,2.08-1.53,7.75-.39,7.99-.34l.33.07-.15.29s-.74,1.41-2.52,4.08l-.08.11Zm-1.98-4.51c-1.29,0-2.56.17-3.28.7-.35.25-.53.57-.57.96-.03.32.06.6.29.87,1.08,1.23,4.55,1.44,5.28,1.47,1.24-1.88,1.96-3.09,2.25-3.62-.69-.12-2.35-.38-3.97-.38Z"/><path class="cls-29" d="m61.84,137.07c-.27,0-.53-.03-.76-.1-.49-.14-.85-.42-1.08-.84-.18-.33-.21-.69-.1-1.07.46-1.56,3.28-3.11,3.4-3.17l.24-.13.11.25s.97,2.21,2.21,3.41l.24.23-.29.16c-.1.06-2.25,1.25-3.96,1.25Zm1.46-4.61c-.67.4-2.59,1.61-2.92,2.74-.08.26-.06.48.06.69.17.3.42.5.78.6,1.26.36,3.3-.58,4.05-.96-.95-1.03-1.69-2.49-1.97-3.07Z"/><path class="cls-22" d="m64.98,140.74c-.58,0-1.08-.13-1.4-.48-.26-.29-.37-.62-.31-1,.21-1.36,2.68-2.79,2.79-2.84l.16-.09.13.13s1.83,1.77,3.53,2.24l.61.17-.56.29c-.39.2-3.1,1.59-4.96,1.59Zm1.17-3.8c-.74.45-2.25,1.53-2.38,2.4-.04.22.02.41.19.58.81.89,3.68-.21,5.23-.95-1.36-.55-2.61-1.65-3.03-2.03Z"/><path class="cls-24" d="m69.93,143.37c-.2,0-.4-.03-.58-.11-.41-.17-.53-.45-.57-.66-.19-1.15,2.06-3.11,2.31-3.33l.11-.09.13.04s1.78.56,3.53.36l.68-.08-.47.5c-.35.38-3.21,3.36-5.15,3.36Zm1.39-3.62c-.88.78-2.14,2.14-2.04,2.78.01.08.06.19.26.28,1.16.47,3.48-1.47,4.71-2.67-1.34.04-2.54-.27-2.94-.39Z"/><path class="cls-47" d="m91.03,128.27s-8.98,10.85-15.23,11.72c-10.4,1.46-13.82-7.28-12.72-12.41s6.08-12.24,10.06-15.71"/><path class="cls-25" d="m73.56,140.41c-4.05,0-6.56-1.69-8-3.24-2.69-2.9-3.31-6.93-2.73-9.64,1.16-5.39,6.07-12.29,10.14-15.85l.33.38c-4.01,3.5-8.84,10.28-9.98,15.58-.56,2.58.03,6.43,2.6,9.19,1.61,1.74,4.63,3.65,9.83,2.92,6.08-.85,14.98-11.53,15.07-11.63l.38.32c-.37.45-9.11,10.93-15.39,11.81-.81.11-1.56.16-2.27.16Z"/><ellipse class="cls-48" cx="82.08" cy="120.07" rx="4.79" ry="12.13" transform="translate(-61.89 99.41) rotate(-47.48)"/><path class="cls-23" d="m89.02,129.25c-.85,0-1.86-.22-2.99-.65-2.33-.89-4.94-2.6-7.35-4.82-2.41-2.21-4.34-4.67-5.43-6.91-1.13-2.31-1.23-4.15-.29-5.18,1.91-2.08,7.42-.04,12.53,4.66,2.41,2.21,4.34,4.67,5.43,6.91,1.13,2.31,1.23,4.15.29,5.18-.5.54-1.24.81-2.19.81Zm-13.9-17.86c-.78,0-1.4.21-1.8.65-.78.85-.64,2.53.37,4.62,1.06,2.19,2.95,4.59,5.32,6.76,2.37,2.17,4.92,3.85,7.19,4.72,2.17.83,3.85.82,4.63-.03.78-.85.64-2.53-.37-4.62-1.06-2.19-2.95-4.59-5.32-6.76-3.6-3.3-7.58-5.33-10.02-5.33Z"/><ellipse class="cls-21" cx="97.46" cy="90.18" rx="11.32" ry="7.66" transform="translate(-18.29 25.12) rotate(-13.44)"/><path class="cls-51" d="m90.04,92.36c.49,2.95,1.58,5.65,9.54,4.73,4.39-.51,6.81-4.73,5.76-8.45-.81-2.88-4.31-4.75-8.61-3.72s-7.22,4.29-6.69,7.45Z"/><path class="cls-28" d="m95.49,98.33c-4.64,0-8.48-2.11-9.28-5.46-.5-2.07.22-4.3,2.02-6.27,1.78-1.94,4.4-3.4,7.39-4.12,6.2-1.48,12.08.76,13.09,5,1.01,4.24-3.21,8.9-9.41,10.38-1.3.31-2.58.46-3.81.46Zm3.96-15.8c-1.19,0-2.44.14-3.71.45-2.89.69-5.43,2.1-7.14,3.97-1.69,1.84-2.36,3.9-1.91,5.81.95,3.97,6.55,6.05,12.49,4.63,5.94-1.42,9.99-5.81,9.04-9.78-.75-3.12-4.37-5.08-8.78-5.08Z"/><path class="cls-18" d="m103.84,91.67c-1,8.02-7,21.43-17.05,31.76-.38.39-.95.5-1.45.3-1.66-.69-5.27-2.7-6.66-7.35-.14-.49.01-1.01.38-1.36,2.45-2.39,11.77-12.1,12.38-22.36.46-7.76,13.5-9.83,12.4-.99Z"/><path class="cls-61" d="m100.46,103.13c-8.47-1.5-9.8-6.41-9.85-6.62l.48-.12s1.33,4.8,9.45,6.25l-.09.49Z"/><path class="cls-61" d="m94.41,114.21c-8.57,0-9.23-6.78-9.24-6.85l.5-.04c.02.26.64,6.39,8.74,6.39h.01v.5h-.01Z"/><path class="cls-64" d="m128.42,38.2l-11.57,5.69s-.17,16.22,5.64,15.5c5.47-.68,6.59-5.78,5.93-21.19Z"/><path class="cls-1" d="m121.89,45.5s-2.7,3.8-2.7,3.8h0s2.77-1.22,2.77-1.22c0,0,.18,3.2.26,5.86,0,.01,2.61-1.16,2.6-1.17-.09-2.82-.27-5.73-.27-5.73l1.69-.75c.02-1.26-.12-2.55-.12-2.55l-1.74.78-2.42,3.57s0-1.26-.07-2.59Z"/><path class="cls-26" d="m122.12,59.66c-.88,0-1.66-.32-2.35-.96-3.57-3.34-3.19-14.35-3.18-14.82v-.15s.14-.07.14-.07l11.91-5.86.02.38c.69,16.06-.69,20.87-6.15,21.45-.13.01-.26.02-.39.02Zm-5.03-15.61c-.03,1.34-.17,11.3,3.02,14.28.68.64,1.45.9,2.34.81,5.06-.53,6.36-5.16,5.72-20.55l-11.09,5.46Z"/><path class="cls-27" d="m120.52,72.8c-.15,0-.3,0-.45-.02-2.86-.27-5.28-3.05-6.83-7.82-1.53-4.7-2.03-10.8-1.42-17.17.61-6.37,2.27-12.26,4.66-16.58,2.43-4.39,5.33-6.65,8.19-6.38,5.82.56,9.52,11.77,8.25,24.99-1.24,12.88-6.74,22.98-12.4,22.98Zm3.68-47.49c-2.52,0-5.09,2.16-7.29,6.14-2.36,4.27-3.99,10.09-4.6,16.39h0c-.6,6.3-.11,12.33,1.4,16.97,1.48,4.57,3.76,7.22,6.4,7.48,5.56.54,11.06-9.57,12.3-22.51,1.24-12.95-2.26-23.91-7.8-24.44-.14-.01-.28-.02-.42-.02Z"/><path class="cls-13" d="m59.78,89.51c-.09,0-.18,0-.27,0-14.34-.14-34.21-1.53-38.33-3.09-2.5-.95-10.73-4.58-11.57-11.52l.5-.06c.8,6.66,8.81,10.19,11.25,11.12,4.07,1.54,23.86,2.91,38.16,3.06,7.88.11,13.11-3.44,14.72-9.92.45-1.81,2.74-23.44,0-36.02-2.79-12.83-15.92-14.31-29.7-14-14.55.32-22.94,13.94-23.02,14.08l-.31.52-.14-.59c-1.2-4.99,1.66-9.34,2.68-10.69-6.79.33-12.67,4.84-16.44,8.63-4.21,4.22-6.78,8.48-6.81,8.52l-.41.68-.06-.79c-.01-.2-1.23-19.83,11.23-34.04C19.02,6.54,30.36,1.61,44.97.72c25.13-1.53,41.78-.64,53.97,2.9,12.3,3.57,20.23,9.86,25.73,20.41l-.44.23c-5.43-10.41-13.27-16.63-25.43-20.16C86.67.58,70.07-.31,45,1.22c-14.47.88-25.69,5.76-33.35,14.5C.74,28.15.43,44.8.51,48.6c.91-1.38,3.19-4.66,6.44-7.93,3.94-3.95,10.14-8.68,17.33-8.8h.57s-.38.42-.38.42c-.04.05-4.01,4.6-3.04,10.09,1.71-2.53,9.92-13.52,23.1-13.81,8.95-.2,15,.49,19.61,2.25,5.83,2.22,9.29,6.19,10.59,12.15,2.75,12.65.45,34.42,0,36.22-1.66,6.67-6.97,10.32-14.95,10.32Z"/></g></svg>