<?xml version="1.0" encoding="UTF-8"?>
<svg id="Layer_1" data-name="Layer 1" xmlns="http://www.w3.org/2000/svg" viewBox="0 0 1735 500">
    <defs>
        <style>
            .cls-1 {
            fill: #fff;
            }
        </style>
    </defs>
    <g id="Treblle_Logo_-_Color">
        <g id="Typo">
            <path class="cls-1" d="M751.02,313.35v54.06h-32.43c-23.11,0-41.14-5.65-54.06-16.96-12.93-11.31-19.39-29.76-19.39-55.36v-82.76h-25.35v-52.94h25.35v-14.55l63.75-48.25v62.8h41.75v52.94h-41.75v83.51c0,6.22,1.49,10.69,4.47,13.42,2.98,2.74,7.95,4.1,14.91,4.1h22.74Z"/>
            <path class="cls-1" d="M861.79,167.02c11.18-6.58,23.61-9.88,37.28-9.88v67.48h-17.52c-15.91,0-27.84,3.42-35.79,10.25-7.96,6.84-11.93,18.82-11.93,35.97v96.56h-63.75v-208.02h63.75v34.67c7.45-11.43,16.77-20.44,27.96-27.03Z"/>
            <path class="cls-1" d="M1108.29,278.67h-144.27c.99,12.93,5.15,22.81,12.49,29.64,7.33,6.84,16.34,10.25,27.03,10.25,15.9,0,26.96-6.71,33.18-20.13h67.85c-3.48,13.67-9.76,25.97-18.82,36.91-9.08,10.94-20.45,19.51-34.11,25.72-13.67,6.22-28.96,9.32-45.85,9.32-20.38,0-38.53-4.35-54.43-13.05-15.91-8.7-28.33-21.12-37.28-37.28-8.95-16.15-13.42-35.04-13.42-56.66s4.41-40.51,13.23-56.67c8.82-16.15,21.19-28.58,37.1-37.28,15.9-8.7,34.17-13.05,54.8-13.05s38.02,4.23,53.68,12.67c15.66,8.45,27.9,20.51,36.72,36.16,8.82,15.66,13.23,33.92,13.23,54.8,0,5.96-.37,12.18-1.12,18.64ZM1044.17,243.26c0-10.93-3.73-19.63-11.18-26.1-7.46-6.46-16.78-9.69-27.96-9.69s-19.7,3.11-27.03,9.32c-7.33,6.22-11.87,15.04-13.61,26.47h79.78Z"/>
            <path class="cls-1" d="M1214.4,165.34c11.18-5.97,23.98-8.95,38.4-8.95,17.15,0,32.68,4.35,46.6,13.05,13.91,8.7,24.91,21.13,32.99,37.28,8.07,16.16,12.12,34.92,12.12,56.29s-4.04,40.2-12.12,56.48c-8.08,16.28-19.08,28.84-32.99,37.65-13.92,8.82-29.45,13.23-46.6,13.23-14.67,0-27.46-2.92-38.4-8.76-10.94-5.84-19.51-13.61-25.72-23.3v29.08h-63.75V103.42h63.75v85.41c5.96-9.69,14.54-17.52,25.72-23.49ZM1266.41,225.55c-8.82-9.07-19.7-13.61-32.62-13.61s-23.43,4.6-32.25,13.79c-8.83,9.2-13.23,21.75-13.23,37.65s4.41,28.46,13.23,37.65c8.82,9.2,19.57,13.79,32.25,13.79s23.49-4.66,32.43-13.98c8.95-9.32,13.42-21.93,13.42-37.84s-4.42-28.39-13.23-37.47Z"/>
            <path class="cls-1" d="M1423.8,103.42v263.98h-63.75V103.42h63.75Z"/>
            <path class="cls-1" d="M1510.7,103.42v263.98h-63.75V103.42h63.75Z"/>
            <path class="cls-1" d="M1733.88,278.67h-144.27c.99,12.93,5.15,22.81,12.49,29.64,7.33,6.84,16.34,10.25,27.03,10.25,15.9,0,26.96-6.71,33.18-20.13h67.85c-3.48,13.67-9.76,25.97-18.82,36.91-9.08,10.94-20.45,19.51-34.11,25.72-13.67,6.22-28.96,9.32-45.85,9.32-20.38,0-38.53-4.35-54.43-13.05-15.91-8.7-28.33-21.12-37.28-37.28-8.95-16.15-13.42-35.04-13.42-56.66s4.41-40.51,13.23-56.67c8.82-16.15,21.19-28.58,37.1-37.28,15.9-8.7,34.17-13.05,54.8-13.05s38.02,4.23,53.68,12.67c15.66,8.45,27.9,20.51,36.72,36.16,8.82,15.66,13.23,33.92,13.23,54.8,0,5.96-.37,12.18-1.12,18.64ZM1669.76,243.26c0-10.93-3.73-19.63-11.18-26.1-7.46-6.46-16.78-9.69-27.96-9.69s-19.7,3.11-27.03,9.32c-7.33,6.22-11.87,15.04-13.61,26.47h79.78Z"/>
        </g>
        <g id="Icon">
            <path class="cls-1" d="M0,0v252.23c0,136.91,111.7,247.77,249.82,247.77s250.18-110.98,250.18-247.89V0H0ZM380.2,186.84h-71.05v197.23h-108.2v-197.23h-108.2l108.2-90.47v90.47l108.2-90.47h71.05v90.47Z"/>
        </g>
    </g>
</svg>