<?xml version="1.0" encoding="UTF-8"?>
<svg width="126px" height="35px" viewBox="0 0 126 35" version="1.1" xmlns="http://www.w3.org/2000/svg" xmlns:xlink="http://www.w3.org/1999/xlink">
    <title>Group 10</title>
    <g id="symbols" stroke="none" stroke-width="1" fill="none" fill-rule="evenodd">
        <g id="Group-10" transform="translate(0.84, 0.5)" fill-rule="nonzero">
            <path d="M35.5460464,0 L0,0 L0,17.1437843 C0,26.7290315 7.94383709,34.5 17.7890625,34.5 C27.6342879,34.5 35.578125,26.7290315 35.578125,17.1437843 L35.5460464,0 Z" id="Path" fill="#FFFFFF"></path>
            <polygon id="Path" fill="#14182F" points="26.871309 13.4405891 21.7709396 13.4405891 21.7709396 27.2486271 14.0457675 27.2486271 14.0457675 13.4405891 6.33522639 13.4405891 6.33522639 13.4090115 14.0135793 7.09348477 14.0603985 7.09348477 14.0603985 13.394658 21.7211942 7.10496755 26.871309 7.10496755"></polygon>
            <path d="M51.4140343,26.8802217 C51.9039957,26.8802217 52.3417853,26.862456 52.7274032,26.8269246 C53.113021,26.7913932 53.4373936,26.7514203 53.7005211,26.7070061 L53.7005211,23.3359636 C53.5462739,23.3537293 53.3942951,23.3692743 53.2445847,23.3825985 C53.0948743,23.3959228 52.9111387,23.4025849 52.6933781,23.4025849 C52.0945363,23.4025849 51.6499416,23.2715629 51.3595941,23.0095187 C51.0692466,22.7474746 50.9240728,22.3099941 50.9240728,21.6970773 L50.9240728,15.5279362 L53.7005211,15.5279362 L53.7005211,12.0502994 L50.9240728,12.0502994 L50.9240728,7.26315789 L46.0652883,7.26315789 L46.0652883,12.0502994 L43.9693421,12.0502994 L43.9693421,15.5279362 L46.0652883,15.5279362 L46.0652883,22.4832097 C46.0652883,24.0643575 46.4940046,25.1924797 47.3514372,25.8675765 C48.2088697,26.5426733 49.5630687,26.8802217 51.4140343,26.8802217 Z M59.9335344,26.8802217 L59.9335344,19.0964551 C59.9335344,18.3998013 60.0595043,17.8147907 60.3114442,17.3414234 C60.5633841,16.8680561 60.9322962,16.5085648 61.4181803,16.2629497 C61.9040644,16.0173346 62.4979227,15.894527 63.1997553,15.894527 C63.4966845,15.894527 63.7913642,15.9168557 64.0837945,15.961513 C64.3762247,16.0061703 64.6394119,16.0731562 64.8733561,16.1624708 L64.8733561,12.1031226 C64.6754034,12.0406024 64.4594549,11.9914794 64.2255107,11.9557536 C63.9915665,11.9200277 63.7531233,11.9021648 63.5101813,11.9021648 C62.6103959,11.9021648 61.8658235,12.1455471 61.2764641,12.6323116 C60.6871046,13.1190761 60.2889496,13.8090313 60.081999,14.7021772 L59.9335344,14.7021772 L59.9335344,12.1835058 L55.1421772,12.1835058 L55.1421772,26.8802217 L59.9335344,26.8802217 Z M72.4387321,27.2368421 C73.6361298,27.2368421 74.6566391,27.0872899 75.5002602,26.7881856 C76.3438813,26.4890813 77.0423632,26.0984599 77.5957061,25.6163216 C78.1490489,25.1341833 78.5799307,24.6230274 78.8883513,24.0828539 C79.1967719,23.5426804 79.4054093,23.0270602 79.5142637,22.5359934 L79.555084,22.3752807 L75.187304,22.3752807 L75.1600904,22.4422443 C75.0875209,22.6208141 74.9446496,22.821705 74.7314765,23.0449172 C74.5183034,23.2681294 74.230293,23.4600919 73.8674452,23.6208047 C73.5045975,23.7815174 73.060109,23.8618738 72.5339797,23.8618738 C71.9262097,23.8618738 71.404616,23.7301786 70.9691987,23.4667883 C70.5337814,23.2033979 70.1981472,22.821705 69.9622961,22.3217097 C69.7601381,21.8931423 69.6446192,21.3891383 69.6157395,20.8096977 L69.6118341,20.6486432 L79.6503316,20.6476183 L79.6503316,19.268167 C79.6503316,17.7771096 79.3487144,16.4802468 78.74548,15.3775786 C78.1422455,14.2749104 77.2895533,13.4200077 76.1874032,12.8128705 C75.0852531,12.2057334 73.7812689,11.9021648 72.2754507,11.9021648 C70.7696324,11.9021648 69.4633804,12.2124298 68.3566947,12.8329596 C67.250009,13.4534895 66.3927812,14.3351777 65.7850112,15.4780241 C65.1772411,16.6208705 64.8733561,17.9824648 64.8733561,19.5628071 L64.8733561,19.5761998 C64.8733561,21.1565421 65.1772411,22.5203686 65.7850112,23.6676792 C66.3927812,24.8149899 67.261348,25.696678 68.3907117,26.3127436 C69.5200754,26.9288093 70.8694155,27.2368421 72.4387321,27.2368421 Z M74.6045351,17.9647117 L69.1983246,17.9647117 L69.2090784,17.8916256 C69.2667094,17.5500009 69.3627611,17.2400408 69.4972335,16.9617452 C69.7325602,16.4747278 70.0561343,16.1040774 70.467956,15.849794 C70.8797776,15.5955105 71.3617447,15.4683688 71.9138573,15.4683688 C72.4659698,15.4683688 72.9456742,15.5933556 73.3529703,15.8433291 C73.7602665,16.0933027 74.0793151,16.4596432 74.3101163,16.9423507 C74.4420026,17.2181835 74.5362072,17.5291991 74.5927299,17.8753975 L74.6045351,17.9647117 Z M89.880864,26.8802217 C91.1323813,26.8802217 92.2057629,26.5846304 93.1010089,25.9934479 C93.9962548,25.4022654 94.681392,24.5483351 95.1564205,23.431657 C95.6314489,22.3149789 95.8689632,20.9727757 95.8689632,19.4050472 L95.8689632,19.3919098 C95.8689632,17.8066649 95.6337327,16.4578929 95.1632718,15.345594 C94.692811,14.233295 94.0099575,13.3837438 93.1147116,12.7969405 C92.2194657,12.2101371 91.1415165,11.9167354 89.880864,11.9167354 C88.8211851,11.9167354 87.9008175,12.1597771 87.1197611,12.6458605 C86.3387047,13.1319439 85.7609056,13.8085194 85.386364,14.6755871 L85.2356338,14.6755871 L85.2356338,7.26609959 L80.3711596,7.26609959 L80.3711596,26.6043365 L85.2356338,26.6043365 L85.2356338,24.2264691 L85.386364,24.2264691 C85.7517705,25.0585037 86.3227181,25.7088045 87.099207,26.1773714 C87.8756958,26.6459383 88.8029148,26.8802217 89.880864,26.8802217 Z M88.3071828,23.3140177 C87.7263717,23.3140177 87.2193144,23.1649491 86.7860109,22.8668119 C86.3527074,22.5686747 86.0162057,22.1392681 85.7765059,21.5785922 C85.5368061,21.0179163 85.4169561,20.3548947 85.4169561,19.5895276 L85.4169561,19.5628287 C85.4169561,18.788562 85.5368061,18.1210907 85.7765059,17.5604147 C86.0162057,16.9997388 86.3550122,16.5703322 86.7929253,16.272195 C87.2308384,15.9740578 87.735591,15.8249892 88.3071828,15.8249892 C88.8879939,15.8249892 89.3950513,15.9740578 89.8283548,16.272195 C90.2616583,16.5703322 90.5958552,16.9975139 90.8309454,17.55374 C91.0660356,18.1099661 91.1835807,18.7796624 91.1835807,19.5628287 L91.1835807,19.5761782 C91.1835807,20.3504449 91.0660356,21.0156914 90.8309454,21.5719175 C90.5958552,22.1281436 90.2639631,22.5575502 89.8352692,22.8601372 C89.4065753,23.1627242 88.8972132,23.3140177 88.3071828,23.3140177 Z M101.996002,26.8802217 L101.996002,7.26609959 L96.9502053,7.26609959 L96.9502053,26.8802217 L101.996002,26.8802217 Z M108.843868,26.8802217 L108.843868,7.26609959 L103.798072,7.26609959 L103.798072,26.8802217 L108.843868,26.8802217 Z M117.850901,27.2368421 C119.048298,27.2368421 120.068808,27.0872899 120.912429,26.7881856 C121.75605,26.4890813 122.454532,26.0984599 123.007875,25.6163216 C123.561217,25.1341833 123.992099,24.6230274 124.30052,24.0828539 C124.60894,23.5426804 124.817578,23.0270602 124.926432,22.5359934 L124.967252,22.3752807 L120.599472,22.3752807 L120.572259,22.4422443 C120.499689,22.6208141 120.356818,22.821705 120.143645,23.0449172 C119.930472,23.2681294 119.642461,23.4600919 119.279614,23.6208047 C118.916766,23.7815174 118.472277,23.8618738 117.946148,23.8618738 C117.338378,23.8618738 116.816784,23.7301786 116.381367,23.4667883 C115.94595,23.2033979 115.610316,22.821705 115.374465,22.3217097 C115.172306,21.8931423 115.056788,21.3891383 115.027908,20.8096977 L115.023939,20.6486432 L125.0625,20.6476183 L125.0625,19.268167 C125.0625,17.7771096 124.760883,16.4802468 124.157648,15.3775786 C123.554414,14.2749104 122.701722,13.4200077 121.599572,12.8128705 C120.497421,12.2057334 119.193437,11.9021648 117.687619,11.9021648 C116.181801,11.9021648 114.875549,12.2124298 113.768863,12.8329596 C112.662177,13.4534895 111.80495,14.3351777 111.19718,15.4780241 C110.58941,16.6208705 110.285525,17.9824648 110.285525,19.5628071 L110.285525,19.5761998 C110.285525,21.1565421 110.58941,22.5203686 111.19718,23.6676792 C111.80495,24.8149899 112.673516,25.696678 113.80288,26.3127436 C114.932244,26.9288093 116.281584,27.2368421 117.850901,27.2368421 Z M120.016704,17.9647117 L114.610493,17.9647117 L114.62131,17.8916256 C114.678941,17.5500009 114.774993,17.2400408 114.909465,16.9617452 C115.144792,16.4747278 115.468366,16.1040774 115.880187,15.849794 C116.292009,15.5955105 116.773976,15.4683688 117.326089,15.4683688 C117.878201,15.4683688 118.357906,15.5933556 118.765202,15.8433291 C119.172498,16.0933027 119.491546,16.4596432 119.722348,16.9423507 C119.854234,17.2181835 119.948439,17.5291991 120.004961,17.8753975 L120.016704,17.9647117 Z" id="treblle" fill="#FFFFFF"></path>
        </g>
    </g>
</svg>