<?xml version="1.0" encoding="UTF-8"?><svg id="Layer_2" xmlns="http://www.w3.org/2000/svg" viewBox="0 0 147.15 40.84"><defs><style>.cls-1{fill:#2d3f58;}.cls-1,.cls-2{stroke-width:0px;}.cls-2{fill:#0047bb;}</style></defs><g id="Layer_1-2"><path id="treblle-copy" class="cls-1" d="m60.51,31.63c.58,0,1.09-.02,1.55-.06.45-.04.84-.09,1.14-.14v-4.01c-.18.02-.36.04-.54.06-.18.02-.39.02-.65.02-.7,0-1.23-.16-1.57-.47-.34-.31-.51-.83-.51-1.56v-7.33h3.27v-4.13h-3.27v-5.69h-5.72v5.69h-2.47v4.13h2.47v8.27c0,1.88.5,3.22,1.51,4.02s2.6,1.2,4.78,1.2Zm10.02,0v-9.25c0-.83.15-1.52.44-2.09.3-.56.73-.99,1.3-1.28s1.27-.44,2.1-.44c.35,0,.7.03,1.04.08.34.05.65.13.93.24v-4.83c-.23-.07-.49-.13-.76-.18s-.56-.06-.84-.06c-1.06,0-1.93.29-2.63.87-.69.58-1.16,1.4-1.41,2.46h-.17v-2.99h-5.64v17.47h5.64Zm14.71.42c1.41,0,2.61-.18,3.6-.53.99-.36,1.81-.82,2.47-1.39.65-.57,1.16-1.18,1.52-1.82.36-.64.61-1.26.74-1.84l.05-.19h-5.14l-.03.08c-.09.21-.25.45-.5.72-.25.27-.59.49-1.02.68-.43.19-.95.29-1.57.29-.71,0-1.33-.16-1.84-.47-.51-.31-.91-.77-1.18-1.36-.24-.51-.37-1.11-.41-1.8v-.19s11.8,0,11.8,0v-1.64c0-1.77-.35-3.31-1.06-4.63-.71-1.31-1.71-2.33-3.01-3.05s-2.83-1.08-4.6-1.08-3.31.37-4.61,1.11-2.31,1.79-3.03,3.14c-.71,1.36-1.07,2.98-1.07,4.86v.02c0,1.88.36,3.5,1.07,4.86.71,1.36,1.74,2.41,3.07,3.14,1.33.73,2.92,1.1,4.76,1.1Zm2.55-11.02h-6.36v-.09c.08-.41.19-.77.35-1.11.28-.58.66-1.02,1.14-1.32.48-.3,1.05-.45,1.7-.45s1.21.15,1.69.45c.48.3.85.73,1.13,1.31.16.33.27.7.33,1.11v.11Zm17.97,10.6c1.47,0,2.73-.35,3.79-1.05,1.05-.7,1.86-1.72,2.42-3.05.56-1.33.84-2.92.84-4.79v-.02c0-1.88-.28-3.49-.83-4.81-.55-1.32-1.36-2.33-2.41-3.03-1.05-.7-2.32-1.05-3.8-1.05-1.25,0-2.33.29-3.25.87-.92.58-1.6,1.38-2.04,2.41h-.18v-8.81h-5.72v22.99h5.72v-2.83h.18c.43.99,1.1,1.76,2.01,2.32.91.56,2,.84,3.27.84Zm-1.85-4.24c-.68,0-1.28-.18-1.79-.53s-.91-.86-1.19-1.53-.42-1.45-.42-2.36v-.03c0-.92.14-1.71.42-2.38.28-.67.68-1.18,1.2-1.53.52-.35,1.11-.53,1.78-.53s1.28.18,1.79.53.9.86,1.18,1.52.41,1.46.41,2.39v.02c0,.92-.14,1.71-.41,2.37s-.67,1.17-1.17,1.53c-.5.36-1.1.54-1.8.54Zm16.1,4.24V8.31h-5.94v23.32h5.94Zm8.06,0V8.31h-5.94v23.32h5.94Zm10.6.42c1.41,0,2.61-.18,3.6-.53.99-.36,1.81-.82,2.47-1.39.65-.57,1.16-1.18,1.52-1.82s.61-1.26.74-1.84l.05-.19h-5.14l-.03.08c-.09.21-.25.45-.5.72-.25.27-.59.49-1.02.68s-.95.29-1.57.29c-.71,0-1.33-.16-1.84-.47-.51-.31-.91-.77-1.18-1.36-.24-.51-.37-1.11-.41-1.8v-.19s11.8,0,11.8,0v-1.64c0-1.77-.35-3.31-1.06-4.63-.71-1.31-1.71-2.33-3.01-3.05s-2.83-1.08-4.6-1.08-3.31.37-4.61,1.11c-1.3.74-2.31,1.79-3.03,3.14s-1.07,2.98-1.07,4.86v.02c0,1.88.36,3.5,1.07,4.86s1.74,2.41,3.07,3.14c1.33.73,2.92,1.1,4.76,1.1Zm2.55-11.02h-6.36v-.09c.08-.41.19-.77.35-1.11.28-.58.66-1.02,1.14-1.32.48-.3,1.05-.45,1.7-.45s1.21.15,1.69.45c.48.3.85.73,1.13,1.31.16.33.27.7.33,1.11v.11Z"/><path class="cls-2" d="m41.43,0H0v19.19c0,.37,0,.74,0,1.11C0,31.65,9.26,40.84,20.71,40.84s20.74-9.2,20.74-20.55l-.03-20.3Zm-10.22,15.91h-5.92v16.35h-8.97V15.91H7.36v-.04l8.92-7.46h.06v7.45l8.9-7.45h5.98v7.5Z"/></g></svg>